<svg xmlns="http://www.w3.org/2000/svg" viewBox="0 0 2621.6000000000004 800" width="100%" height="100%" shape-rendering="crispEdges">
  <g transform="translate(0, 0)">
    <rect width="800" height="800" fill="#22c55e"/>
    <g transform="translate(243.52, 568.0) scale(0.48, -0.48)">
      <path d="M308 -14Q236 -14 177.5 18.5Q119 51 84.5 113.5Q50 176 50 266V434Q50 569 126.0 641.5Q202 714 332 714Q461 714 531.5 645.5Q602 577 602 460V456H472V464Q472 501 456.5 531.0Q441 561 410.0 578.5Q379 596 332 596Q262 596 222.0 553.0Q182 510 182 436V264Q182 191 222.0 146.5Q262 102 334 102Q406 102 439.0 140.0Q472 178 472 236V246H306V358H602V0H480V67H462Q455 50 439.5 31.0Q424 12 393.0 -1.0Q362 -14 308 -14Z" fill="#0f172a"/>
    </g>
    <g transform="translate(1040.0, 607.5999999999999) scale(0.6, -0.6)"><path d="M308 -14Q236 -14 177.5 18.5Q119 51 84.5 113.5Q50 176 50 266V434Q50 569 126.0 641.5Q202 714 332 714Q461 714 531.5 645.5Q602 577 602 460V456H472V464Q472 501 456.5 531.0Q441 561 410.0 578.5Q379 596 332 596Q262 596 222.0 553.0Q182 510 182 436V264Q182 191 222.0 146.5Q262 102 334 102Q406 102 439.0 140.0Q472 178 472 236V246H306V358H602V0H480V67H462Q455 50 439.5 31.0Q424 12 393.0 -1.0Q362 -14 308 -14Z" fill="#0f172a"/></g>
    <g transform="translate(1407.2, 607.5999999999999) scale(0.6, -0.6)"><path d="M66 0V700H370Q436 700 485.0 677.0Q534 654 561.0 612.0Q588 570 588 513V501Q588 438 558.0 399.0Q528 360 484 342V324Q524 322 546.0 296.5Q568 271 568 229V0H436V210Q436 234 423.5 249.0Q411 264 382 264H198V0ZM198 384H356Q403 384 429.5 409.5Q456 435 456 477V487Q456 529 430.0 554.5Q404 580 356 580H198Z" fill="#0f172a"/></g>
    <g transform="translate(1756.4, 607.5999999999999) scale(0.6, -0.6)"><path d="M304 -14Q225 -14 164.0 14.0Q103 42 68.5 94.5Q34 147 34 219V237H162V223Q162 167 201.0 133.5Q240 100 304 100Q369 100 404.5 131.0Q440 162 440 209V219Q440 251 424.0 271.0Q408 291 381.0 300.5Q354 310 320 310H180V450L406 570V586H52V700H548V530L337 418V402H374Q421 402 465.5 383.0Q510 364 539.0 324.5Q568 285 568 222V210Q568 142 535.0 91.5Q502 41 442.5 13.5Q383 -14 304 -14Z" fill="#0f172a"/></g>
    <g transform="translate(2091.2000000000003, 607.5999999999999) scale(0.6, -0.6)"><path d="M324 -14Q200 -14 125.0 54.5Q50 123 50 262V438Q50 573 125.0 643.5Q200 714 324 714Q449 714 523.5 643.5Q598 573 598 438V262Q598 123 523.5 54.5Q449 -14 324 -14ZM324 100Q399 100 434.5 141.0Q470 182 470 258V444Q470 521 430.5 560.5Q391 600 324 600Q255 600 216.5 559.0Q178 518 178 444V258Q178 179 214.5 139.5Q251 100 324 100Z" fill="#0f172a"/></g>
    <g transform="translate(2442.8, 607.5999999999999) scale(0.6, -0.6)"><path d="M150 -14Q109 -14 81.5 12.5Q54 39 54 81Q54 123 81.5 149.5Q109 176 150 176Q190 176 217.0 149.5Q244 123 244 81Q244 39 217.0 12.5Q190 -14 150 -14Z" fill="#22c55e"/></g>
  </g>
</svg>